<svg width="64" height="64" viewBox="0 0 64 64" fill="none" xmlns="http://www.w3.org/2000/svg">
<path fill-rule="evenodd" clip-rule="evenodd" d="M22.4 0C10.0288 0 0 10.0288 0 22.4V38.5836L13.37 21.585L15.97 18.46C19.07 14.81 21.1033 12.985 22.07 12.985C23.42 12.985 24.7033 13.3267 25.92 14.01C27.0033 14.61 27.62 15.1933 27.77 15.76C27.8367 15.9767 27.695 16.985 27.345 18.785L26.47 23.51C25.4867 28.7767 24.995 32.1767 24.995 33.71C24.995 35.2267 25.17 35.985 25.52 35.985C26.6533 35.985 28.8367 34.1267 32.07 30.41L40.17 20.71C41.9533 18.66 43.1367 17.4933 43.72 17.21C43.8867 17.1267 44.1283 17.085 44.445 17.085C44.7617 17.085 45.1117 17.1267 45.495 17.21C45.895 17.2933 46.295 17.4017 46.695 17.535C47.1117 17.6683 47.5117 17.8267 47.895 18.01C48.2783 18.1933 48.62 18.385 48.92 18.585C49.57 19.0183 49.8867 19.3767 49.87 19.66C49.87 19.9267 49.8033 20.5183 49.67 21.435C49.5367 22.335 49.37 23.435 49.17 24.735C47.7867 33.3517 47.0617 38.3517 46.995 39.735C46.945 41.1183 47.0867 41.985 47.42 42.335C47.77 42.685 48.2783 42.86 48.945 42.86C50.1617 42.86 51.9283 42.135 54.245 40.685C55.8117 39.7017 57.1033 39.21 58.12 39.21C59.1533 39.21 59.67 39.7017 59.67 40.685C59.67 41.7017 59.12 42.935 58.02 44.385C56.4367 46.485 54.07 48.385 50.92 50.085C48.27 51.5017 45.7533 52.21 43.37 52.21C39.47 52.21 37.52 49.635 37.52 44.485L37.57 42.785C37.6033 41.7183 37.7033 40.5517 37.87 39.285L38.27 36.335C38.3533 35.635 38.4367 35.0017 38.52 34.435C36.9367 36.1683 35.6617 37.5183 34.695 38.485L31.82 41.285C25.3867 47.3017 21.5533 50.31 20.32 50.31C18.5033 50.31 16.595 49.9183 14.595 49.135C13.5117 48.7017 12.895 48.2517 12.745 47.785C12.5117 47.2017 12.395 46.41 12.395 45.41C12.395 44.3933 12.4283 43.46 12.495 42.61C12.5617 41.76 12.645 40.9183 12.745 40.085C12.845 39.235 12.945 38.4267 13.045 37.66C13.1617 36.8767 13.2533 36.1933 13.32 35.61C13.4867 34.2933 13.52 33.635 13.42 33.635L4.12 45.06C2.99099 46.3865 1.98747 47.5604 1.10945 48.5817C4.04339 57.5342 12.4666 64 22.4 64H41.6C53.9712 64 64 53.9712 64 41.6V22.4C64 10.0288 53.9712 0 41.6 0H22.4Z" fill="#369FFF"/>
</svg>
